<svg width="28" height="28" viewBox="0 0 28 28" fill="none" xmlns="http://www.w3.org/2000/svg">
<g clip-path="url(#clip0)">
<path fill-rule="evenodd" clip-rule="evenodd" d="M14 0C6.26801 0 0 6.26802 0 14C0 21.732 6.26801 28 14 28C21.732 28 28 21.732 28 14C28 6.26802 21.732 0 14 0Z" fill="url(#paint0_linear)"/>
<path fill-rule="evenodd" clip-rule="evenodd" d="M5.75146 14C5.75146 9.44446 9.44449 5.75146 14 5.75146C18.5555 5.75146 22.2485 9.44446 22.2485 14C22.2485 18.5555 18.5555 22.2485 14 22.2485C9.44449 22.2485 5.75146 18.5555 5.75146 14ZM11.8921 16.6578C11.5884 16.6578 11.3421 16.4116 11.3421 16.1079V11.892C11.3421 11.5883 11.5884 11.3421 11.8921 11.3421H16.1079C16.4116 11.3421 16.6578 11.5883 16.6578 11.892V16.1079C16.6578 16.4116 16.4116 16.6578 16.1079 16.6578H11.8921Z" fill="white"/>
</g>
<defs>
<linearGradient id="paint0_linear" x1="14" y1="28" x2="14" y2="0" gradientUnits="userSpaceOnUse">
<stop stop-color="#2E66F8"/>
<stop offset="1" stop-color="#124ADB"/>
</linearGradient>
<clipPath id="clip0">
<rect width="28" height="28" fill="white"/>
</clipPath>
</defs>
</svg>
