<svg width="24" height="24" viewBox="0 0 24 24" fill="none" xmlns="http://www.w3.org/2000/svg">
<path d="M10.2269 10.3901C9.66857 10.3901 9.22775 10.8901 9.22775 11.5001C9.22775 12.1101 9.67837 12.6101 10.2269 12.6101C10.7853 12.6101 11.2261 12.1101 11.2261 11.5001C11.2359 10.8901 10.7853 10.3901 10.2269 10.3901ZM13.8024 10.3901C13.2441 10.3901 12.8033 10.8901 12.8033 11.5001C12.8033 12.1101 13.2539 12.6101 13.8024 12.6101C14.3608 12.6101 14.8016 12.1101 14.8016 11.5001C14.8016 10.8901 14.3608 10.3901 13.8024 10.3901Z" fill="#A9A9A9"/>
<path d="M18.5633 2H5.43674C4.3298 2 3.42857 2.92 3.42857 4.06V17.58C3.42857 18.72 4.3298 19.64 5.43674 19.64H16.5453L16.0261 17.79L17.28 18.98L18.4653 20.1L20.5714 22V4.06C20.5714 2.92 19.6702 2 18.5633 2ZM14.782 15.06C14.782 15.06 14.4294 14.63 14.1355 14.25C15.4188 13.88 15.9086 13.06 15.9086 13.06C15.5069 13.33 15.1249 13.52 14.782 13.65C14.2922 13.86 13.822 14 13.3616 14.08C12.4212 14.26 11.5592 14.21 10.8245 14.07C10.2661 13.96 9.78612 13.8 9.38449 13.64C9.15919 13.55 8.91429 13.44 8.66939 13.3C8.64 13.28 8.61061 13.27 8.58123 13.25C8.56163 13.24 8.55184 13.23 8.54204 13.22C8.36572 13.12 8.26776 13.05 8.26776 13.05C8.26776 13.05 8.73796 13.85 9.98204 14.23C9.68817 14.61 9.32572 15.06 9.32572 15.06C7.16082 14.99 6.33796 13.54 6.33796 13.54C6.33796 10.32 7.74857 7.71 7.74857 7.71C9.15919 6.63 10.5012 6.66 10.5012 6.66L10.5992 6.78C8.83592 7.3 8.02286 8.09 8.02286 8.09C8.02286 8.09 8.23837 7.97 8.60082 7.8C9.64898 7.33 10.4816 7.2 10.8245 7.17C10.8833 7.16 10.9322 7.15 10.991 7.15C11.5886 7.07 12.2645 7.05 12.9698 7.13C13.9004 7.24 14.8996 7.52 15.9184 8.09C15.9184 8.09 15.1445 7.34 13.4792 6.82L13.6163 6.66C13.6163 6.66 14.9584 6.63 16.369 7.71C16.369 7.71 17.7796 10.32 17.7796 13.54C17.7796 13.54 16.9469 14.99 14.782 15.06Z" fill="#A9A9A9"/>
</svg>
