<svg xmlns="http://www.w3.org/2000/svg" width="24" height="24" fill="none" viewBox="0 0 24 24">
    <path fill="#62D066" d="M10.227 10.39c-.558 0-1 .5-1 1.11 0 .61.451 1.11 1 1.11.558 0 1-.5 1-1.11.009-.61-.442-1.11-1-1.11zm3.575 0c-.558 0-.999.5-.999 1.11 0 .61.45 1.11 1 1.11.558 0 .999-.5.999-1.11 0-.61-.441-1.11-1-1.11z"/>
    <path fill="#62D066" d="M18.563 2H5.437c-1.107 0-2.008.92-2.008 2.06v13.52c0 1.14.9 2.06 2.008 2.06h11.108l-.519-1.85 1.254 1.19 1.185 1.12 2.106 1.9V4.06c0-1.14-.9-2.06-2.008-2.06zm-3.781 13.06s-.353-.43-.646-.81c1.283-.37 1.773-1.19 1.773-1.19-.402.27-.784.46-1.127.59-.49.21-.96.35-1.42.43-.94.18-1.803.13-2.537-.01-.559-.11-1.039-.27-1.44-.43-.226-.09-.47-.2-.716-.34-.029-.02-.058-.03-.088-.05-.02-.01-.03-.02-.039-.03-.176-.1-.274-.17-.274-.17s.47.8 1.714 1.18c-.294.38-.656.83-.656.83-2.165-.07-2.988-1.52-2.988-1.52 0-3.22 1.41-5.83 1.41-5.83 1.411-1.08 2.753-1.05 2.753-1.05l.098.12c-1.763.52-2.576 1.31-2.576 1.31s.215-.12.578-.29c1.048-.47 1.88-.6 2.223-.63.06-.01.108-.02.167-.02.598-.08 1.274-.1 1.979-.02.93.11 1.93.39 2.948.96 0 0-.773-.75-2.439-1.27l.137-.16s1.342-.03 2.753 1.05c0 0 1.41 2.61 1.41 5.83 0 0-.832 1.45-2.997 1.52z"/>
</svg>
