<svg xmlns="http://www.w3.org/2000/svg" width="24" height="24" fill="none" viewBox="0 0 24 24">
    <path fill="#A9A9A9" d="M4.606 7.813c.023-.228-.064-.454-.234-.608L2.635 5.113V4.8h5.394l4.169 9.144L15.864 4.8h5.142v.313L19.52 6.537c-.128.097-.191.258-.165.417v10.463c-.026.16.037.32.165.417l1.451 1.424v.313h-7.296v-.313l1.502-1.459c.148-.147.148-.19.148-.416V8.925l-4.178 10.611h-.565L5.718 8.925v7.112c-.04.299.059.6.27.816l1.954 2.37v.313H2.4v-.312l1.954-2.371c.21-.217.303-.52.252-.816V7.813z"/>
</svg>
