<svg width="28" height="28" viewBox="0 0 28 28" fill="none" xmlns="http://www.w3.org/2000/svg">
<path d="M25.6331 2.02222L15.5503 9.51084L17.4148 5.09266L25.6331 2.02222Z" fill="#E2761B" stroke="#E2761B" stroke-width="0.101334" stroke-linecap="round" stroke-linejoin="round"/>
<path d="M2.35693 2.02222L12.3586 9.58178L10.5853 5.09266L2.35693 2.02222Z" fill="#E4761B" stroke="#E4761B" stroke-width="0.101334" stroke-linecap="round" stroke-linejoin="round"/>
<path d="M22.0057 19.3809L19.3203 23.495L25.0661 25.0758L26.7177 19.472L22.0057 19.3809Z" fill="#E4761B" stroke="#E4761B" stroke-width="0.101334" stroke-linecap="round" stroke-linejoin="round"/>
<path d="M1.29248 19.472L2.9341 25.0758L8.67977 23.495L5.9944 19.3809L1.29248 19.472Z" fill="#E4761B" stroke="#E4761B" stroke-width="0.101334" stroke-linecap="round" stroke-linejoin="round"/>
<path d="M8.35548 12.4294L6.75439 14.8513L12.4595 15.1046L12.2568 8.97388L8.35548 12.4294Z" fill="#E4761B" stroke="#E4761B" stroke-width="0.101334" stroke-linecap="round" stroke-linejoin="round"/>
<path d="M19.634 12.4293L15.682 8.90283L15.5503 15.1045L21.2452 14.8512L19.634 12.4293Z" fill="#E4761B" stroke="#E4761B" stroke-width="0.101334" stroke-linecap="round" stroke-linejoin="round"/>
<path d="M8.67969 23.495L12.1048 21.823L9.14582 19.5126L8.67969 23.495Z" fill="#E4761B" stroke="#E4761B" stroke-width="0.101334" stroke-linecap="round" stroke-linejoin="round"/>
<path d="M15.8848 21.823L19.32 23.495L18.8437 19.5126L15.8848 21.823Z" fill="#E4761B" stroke="#E4761B" stroke-width="0.101334" stroke-linecap="round" stroke-linejoin="round"/>
<path d="M19.32 23.4951L15.8848 21.8231L16.1584 24.0626L16.128 25.005L19.32 23.4951Z" fill="#D7C1B3" stroke="#D7C1B3" stroke-width="0.101334" stroke-linecap="round" stroke-linejoin="round"/>
<path d="M8.67969 23.4951L11.8718 25.005L11.8515 24.0626L12.1048 21.8231L8.67969 23.4951Z" fill="#D7C1B3" stroke="#D7C1B3" stroke-width="0.101334" stroke-linecap="round" stroke-linejoin="round"/>
<path d="M11.9226 18.0331L9.06494 17.192L11.0815 16.2699L11.9226 18.0331Z" fill="#233447" stroke="#233447" stroke-width="0.101334" stroke-linecap="round" stroke-linejoin="round"/>
<path d="M16.0674 18.0331L16.9085 16.2699L18.9352 17.192L16.0674 18.0331Z" fill="#233447" stroke="#233447" stroke-width="0.101334" stroke-linecap="round" stroke-linejoin="round"/>
<path d="M8.68 23.495L9.1664 19.3809L5.99463 19.472L8.68 23.495Z" fill="#CD6116" stroke="#CD6116" stroke-width="0.101334" stroke-linecap="round" stroke-linejoin="round"/>
<path d="M18.8335 19.3809L19.3199 23.495L22.0052 19.472L18.8335 19.3809Z" fill="#CD6116" stroke="#CD6116" stroke-width="0.101334" stroke-linecap="round" stroke-linejoin="round"/>
<path d="M21.2452 14.8512L15.5503 15.1046L16.0772 18.0332L16.9183 16.2699L18.9449 17.1921L21.2452 14.8512Z" fill="#CD6116" stroke="#CD6116" stroke-width="0.101334" stroke-linecap="round" stroke-linejoin="round"/>
<path d="M9.06434 17.1921L11.0911 16.2699L11.9219 18.0332L12.459 15.1046L6.75391 14.8512L9.06434 17.1921Z" fill="#CD6116" stroke="#CD6116" stroke-width="0.101334" stroke-linecap="round" stroke-linejoin="round"/>
<path d="M6.75439 14.8512L9.14589 19.5127L9.06482 17.1921L6.75439 14.8512Z" fill="#E4751F" stroke="#E4751F" stroke-width="0.101334" stroke-linecap="round" stroke-linejoin="round"/>
<path d="M18.9451 17.1921L18.8438 19.5127L21.2454 14.8512L18.9451 17.1921Z" fill="#E4751F" stroke="#E4751F" stroke-width="0.101334" stroke-linecap="round" stroke-linejoin="round"/>
<path d="M12.4599 15.1046L11.9229 18.0332L12.5917 21.4887L12.7437 16.9387L12.4599 15.1046Z" fill="#E4751F" stroke="#E4751F" stroke-width="0.101334" stroke-linecap="round" stroke-linejoin="round"/>
<path d="M15.5505 15.1046L15.2769 16.9286L15.3984 21.4887L16.0774 18.0332L15.5505 15.1046Z" fill="#E4751F" stroke="#E4751F" stroke-width="0.101334" stroke-linecap="round" stroke-linejoin="round"/>
<path d="M16.0769 18.0331L15.3979 21.4886L15.8844 21.8231L18.8434 19.5126L18.9447 17.192L16.0769 18.0331Z" fill="#F6851B" stroke="#F6851B" stroke-width="0.101334" stroke-linecap="round" stroke-linejoin="round"/>
<path d="M9.06494 17.192L9.14601 19.5126L12.105 21.8231L12.5914 21.4886L11.9226 18.0331L9.06494 17.192Z" fill="#F6851B" stroke="#F6851B" stroke-width="0.101334" stroke-linecap="round" stroke-linejoin="round"/>
<path d="M16.1278 25.0049L16.1582 24.0625L15.9049 23.8396H12.0845L11.8515 24.0625L11.8718 25.0049L8.67969 23.495L9.79435 24.407L12.0541 25.9777H15.9352L18.2051 24.407L19.3198 23.495L16.1278 25.0049Z" fill="#C0AD9E" stroke="#C0AD9E" stroke-width="0.101334" stroke-linecap="round" stroke-linejoin="round"/>
<path d="M15.8847 21.8231L15.3983 21.4886H12.5913L12.1049 21.8231L11.8516 24.0626L12.0846 23.8397H15.905L16.1583 24.0626L15.8847 21.8231Z" fill="#161616" stroke="#161616" stroke-width="0.101334" stroke-linecap="round" stroke-linejoin="round"/>
<path d="M26.0587 9.99726L26.9201 5.8628L25.6331 2.02222L15.8848 9.25751L19.6341 12.4293L24.934 13.9797L26.1094 12.6116L25.6028 12.2469L26.4135 11.5072L25.7851 11.0207L26.5958 10.4026L26.0587 9.99726Z" fill="#763D16" stroke="#763D16" stroke-width="0.101334" stroke-linecap="round" stroke-linejoin="round"/>
<path d="M1.08008 5.8628L1.94142 9.99726L1.39422 10.4026L2.20489 11.0207L1.58675 11.5072L2.39743 12.2469L1.89076 12.6116L3.0561 13.9797L8.3559 12.4293L12.1053 9.25751L2.35689 2.02222L1.08008 5.8628Z" fill="#763D16" stroke="#763D16" stroke-width="0.101334" stroke-linecap="round" stroke-linejoin="round"/>
<path d="M24.934 13.9797L19.6341 12.4293L21.2454 14.8511L18.8438 19.5126L22.0053 19.472H26.7174L24.934 13.9797Z" fill="#F6851B" stroke="#F6851B" stroke-width="0.101334" stroke-linecap="round" stroke-linejoin="round"/>
<path d="M8.3555 12.4293L3.0557 13.9797L1.29248 19.472H5.9944L9.14591 19.5126L6.75442 14.8511L8.3555 12.4293Z" fill="#F6851B" stroke="#F6851B" stroke-width="0.101334" stroke-linecap="round" stroke-linejoin="round"/>
<path d="M15.5504 15.1045L15.8848 9.2575L17.425 5.09265H10.585L12.105 9.2575L12.4596 15.1045L12.5812 16.9488L12.5914 21.4886H15.3983L15.4186 16.9488L15.5504 15.1045Z" fill="#F6851B" stroke="#F6851B" stroke-width="0.101334" stroke-linecap="round" stroke-linejoin="round"/>
</svg>
