<svg width="28" height="28" viewBox="0 0 28 28" fill="none" xmlns="http://www.w3.org/2000/svg">
<path d="M4.65186 16.0968L5.33006 15.8062L13.6346 12.1937L22.6173 16.0968L19.2401 23.0726L10.991 24.2352L4.79026 17.5363L4.65186 16.0968Z" fill="#133444"/>
<path d="M20.7484 11.8063C19.2674 10.0208 17.1636 8.85816 14.8661 8.55366C14.8107 8.55366 14.7692 8.53982 14.7138 8.53982C13.9941 8.45678 13.2744 8.45678 12.5546 8.53982C12.4993 8.53982 12.4577 8.55366 12.4024 8.55366C10.1048 8.85816 8.001 10.0208 6.52003 11.8063L6.14633 12.4291L5.52349 13.4672L5.06674 14.2284C5.06674 14.2561 5.0529 14.2699 5.03906 14.2838V14.2976L6.0356 14.8928L12.4024 18.6575L13.6342 19.3772V10.3807L12.4024 10.9343V9.59173L13.6342 9.03809L14.8661 9.59173L21.1221 12.4291L20.7484 11.8063Z" fill="#C42370"/>
<path d="M22.8939 18.3391C22.88 21.2872 21.5513 24.0692 19.2676 25.9378C18.3956 26.6436 17.4129 27.1973 16.3471 27.5571C15.4752 27.8478 14.5617 28 13.6482 28C8.52708 28 4.38867 23.4464 4.38867 18.3391C4.38867 17.5779 4.48556 16.8305 4.66549 16.0969L13.6482 21.4118L22.6309 16.0969C22.797 16.8305 22.8939 17.5779 22.8939 18.3391Z" fill="#1C4D6B"/>
<path d="M12.5546 8.52594L13.6342 9.02421L12.4023 9.57785V8.47058L12.5546 8.52594Z" fill="black"/>
<path d="M12.4023 10.9343L13.6342 10.3668V19.3634L12.4023 18.6436V10.9343Z" fill="black"/>
<path d="M13.6343 10.3668V19.3634L22.2433 14.2838L13.6343 10.3668Z" fill="#1D4259"/>
<path d="M13.6343 0V10.3668L22.2433 14.2837L13.6343 0Z" fill="#4B6B9A"/>
<path d="M13.6342 10.3668V19.3634L12.4024 18.6437L5.03906 14.2838C5.03906 14.2561 5.0529 14.2423 5.06674 14.2284L6.14633 12.443L12.4024 9.60559V10.962L13.6342 10.3668Z" fill="#343535"/>
<path d="M13.6344 10.3668V19.3634L12.4026 18.6436L5.03923 14.2838H5.02539L5.03923 14.2699L12.4026 10.9343L13.6344 10.3668Z" fill="#3E5578"/>
<path d="M13.6344 0V10.3668L5.02539 14.2837L13.6344 0Z" fill="#6DB2D8"/>
<path d="M10.1465 27.2665C10.2711 27.3218 10.4095 27.3772 10.534 27.4326C10.4095 27.3772 10.2849 27.3218 10.1465 27.2665Z" fill="#335F8A"/>
<path d="M10.5342 27.4187C10.6587 27.4741 10.7972 27.5156 10.9356 27.5571C10.7972 27.5156 10.6726 27.4741 10.5342 27.4187Z" fill="#335F8A"/>
<path d="M11.2817 27.6678C11.3925 27.6955 11.4894 27.7232 11.5862 27.7509L11.2817 27.6678Z" fill="#335F8A"/>
<path d="M4.65182 16.0969L13.6345 21.4118C13.5099 22.2146 13.3023 23.0035 12.984 23.7647C12.2643 25.5087 10.811 27.3357 8.0013 25.9378C5.71756 24.0692 4.38884 21.2734 4.375 18.3253C4.375 17.5779 4.47189 16.8305 4.65182 16.0969Z" fill="#6DB2D8"/>
<path d="M19.2402 25.9516C19.1849 25.9931 19.2402 25.9516 19.0603 26.1038L18.9772 26.1592L18.8527 26.2422L18.7004 26.353C18.8527 26.2422 18.5759 26.436 18.5205 26.4775C18.4651 26.5052 18.4236 26.5329 18.3682 26.5744L18.2714 26.6436C18.2437 26.6575 18.2022 26.6851 18.1745 26.7128C18.1745 26.7128 18.1329 26.7544 18.1191 26.7544C18.1745 26.7128 18.0499 26.782 17.9945 26.8236C17.9253 26.8512 17.87 26.8789 17.8146 26.9204L17.6208 27.0173L17.5378 27.0588C17.4824 27.0865 17.5101 27.0589 17.4548 27.1004C17.3994 27.1419 17.3302 27.1557 17.261 27.1973C17.1918 27.2388 17.261 27.1973 17.0257 27.308C17.261 27.1973 17.0257 27.308 16.9011 27.3633C17.0257 27.308 16.6797 27.4464 16.5274 27.5018C16.4721 27.5156 16.1676 27.6125 16.1122 27.6263C16.0568 27.6402 15.9876 27.6678 15.9323 27.6817C15.8215 27.7094 15.7246 27.7371 15.6278 27.7647C15.5862 27.7786 15.5447 27.7786 15.517 27.7924L15.4478 27.8063L15.2817 27.8478C15.2264 27.8616 15.1849 27.8616 15.1295 27.8755C15.0741 27.8893 15.0326 27.8893 14.9911 27.9031C14.9496 27.917 14.8804 27.917 14.8388 27.9308C14.8112 27.9308 14.7835 27.9308 14.7696 27.9447L14.6589 27.9585H14.6035C14.562 27.9585 14.5205 27.9723 14.479 27.9723C14.4374 27.9723 14.3682 27.9862 14.3129 27.9862H12.9011C12.8458 27.9862 12.7904 27.9723 12.735 27.9723C12.6935 27.9723 12.652 27.9723 12.6105 27.9585H12.5551C12.5136 27.9585 12.4721 27.9447 12.4444 27.9447C12.4167 27.9447 12.389 27.9447 12.3752 27.9308C12.3198 27.9308 12.2783 27.917 12.2229 27.9031C12.1814 27.9031 12.126 27.8893 12.0845 27.8755C12.043 27.8616 11.9876 27.8616 11.9323 27.8478L11.7662 27.8063L11.697 27.7924C11.6554 27.7924 11.6139 27.7786 11.5862 27.7647C11.4755 27.7371 11.3786 27.7094 11.2817 27.6817L11.1018 27.6263C11.0464 27.6125 10.9911 27.5986 10.9357 27.571C10.7973 27.5294 10.6727 27.4741 10.5343 27.4326C10.3959 27.391 10.2714 27.3218 10.1468 27.2665C10.0914 27.2388 10.0222 27.2111 9.95302 27.1834C9.88382 27.1557 9.81461 27.1281 9.75925 27.0865C9.69005 27.0588 9.63468 27.0312 9.57932 26.9896C9.52396 26.962 9.45475 26.9204 9.39939 26.8928C9.34403 26.8651 9.3025 26.8374 9.26098 26.8097C9.12257 26.7267 9.03953 26.6713 9.12257 26.7267L9.03953 26.6713L8.88728 26.5744L8.83191 26.5467L8.69351 26.4499C8.63814 26.4083 8.58278 26.3806 8.52742 26.3391C8.47205 26.2976 8.40285 26.2561 8.34749 26.2146C8.29212 26.173 8.23676 26.1177 8.19524 26.09L8.13987 26.0485C8.08451 26.0208 8.04299 25.9793 8.00146 25.9377C10.8112 27.3357 12.2506 25.481 12.9703 23.7509C13.2748 22.9896 13.4963 22.2007 13.6208 21.3979C13.7454 22.2146 13.953 23.0173 14.2714 23.7786C15.0188 25.4948 16.4305 27.3357 19.2402 25.9516Z" fill="#529BBA"/>
<path d="M15.6831 27.7509C15.7938 27.7232 15.8907 27.6955 15.9876 27.6678L15.6831 27.7509Z" fill="#335F8A"/>
<path d="M16.3335 27.5571C16.4719 27.5156 16.5965 27.4741 16.7349 27.4187C16.5965 27.4741 16.4719 27.5156 16.3335 27.5571Z" fill="#335F8A"/>
<path d="M16.707 27.4325C16.8316 27.3771 16.9977 27.3218 17.1223 27.2526C16.9838 27.3218 16.8316 27.3771 16.707 27.4325Z" fill="#335F8A"/>
<path d="M22.8938 18.3391C22.8799 21.2872 21.5512 24.0692 19.2675 25.9378C16.4578 27.3357 15.0045 25.4948 14.2848 23.7647C13.9803 23.0035 13.7588 22.2146 13.6343 21.4118L22.617 16.0969C22.7969 16.8305 22.8938 17.5779 22.8938 18.3391Z" fill="#4B6B9A"/>
</svg>
