<svg width="28" height="28" viewBox="0 0 28 28" fill="none" xmlns="http://www.w3.org/2000/svg">
<path d="M6.37589 9.1446C10.6583 4.9518 17.6014 4.9518 21.8838 9.1446L22.3992 9.64922C22.6133 9.85886 22.6133 10.1988 22.3992 10.4084L20.6361 12.1346C20.529 12.2394 20.3555 12.2394 20.2484 12.1346L19.5392 11.4402C16.5517 8.51515 11.708 8.51515 8.72049 11.4402L7.96095 12.1838C7.85389 12.2886 7.68031 12.2886 7.57325 12.1838L5.8102 10.4576C5.59608 10.248 5.59608 9.9081 5.8102 9.69846L6.37589 9.1446ZM25.5299 12.7145L27.099 14.2508C27.3132 14.4605 27.3132 14.8004 27.099 15.01L20.0238 21.9374C19.8097 22.147 19.4625 22.147 19.2484 21.9374C19.2484 21.9374 19.2484 21.9374 19.2484 21.9374L14.2268 17.0208C14.1733 16.9684 14.0865 16.9684 14.0329 17.0208C14.0329 17.0208 14.0329 17.0208 14.0329 17.0208L9.01145 21.9374C8.79733 22.147 8.45018 22.147 8.23606 21.9374C8.23606 21.9374 8.23605 21.9374 8.23605 21.9374L1.16059 15.0099C0.94647 14.8003 0.94647 14.4604 1.16059 14.2507L2.72971 12.7144C2.94383 12.5048 3.29099 12.5048 3.50511 12.7144L8.52677 17.6311C8.5803 17.6835 8.66709 17.6835 8.72062 17.6311C8.72062 17.6311 8.72062 17.6311 8.72062 17.6311L13.742 12.7144C13.9562 12.5048 14.3033 12.5048 14.5174 12.7144C14.5174 12.7144 14.5174 12.7144 14.5174 12.7144L19.5391 17.6311C19.5926 17.6835 19.6794 17.6835 19.733 17.6311L24.7545 12.7145C24.9687 12.5049 25.3158 12.5049 25.5299 12.7145Z" fill="#3B99FC"/>
</svg>
