<svg width="24" height="24" viewBox="0 0 24 24" fill="none" xmlns="http://www.w3.org/2000/svg">
<circle cx="12" cy="12" r="12" fill="url(#paint0_linear)"/>
<g clip-path="url(#clip0)">
<path d="M7.9676 15.6483C7.55351 15.6483 7.21741 15.3036 7.21741 14.8789V7.69101C7.21741 7.26598 7.55351 6.92163 7.9676 6.92163C8.38169 6.92163 8.7178 7.26598 8.7178 7.69101V14.8789C8.7178 15.3036 8.38169 15.6483 7.9676 15.6483Z" fill="#62D066"/>
<path fill-rule="evenodd" clip-rule="evenodd" d="M7.96753 15.7685C7.48462 15.7685 7.09784 15.3674 7.09784 14.8796V7.69173C7.09784 7.20354 7.48465 6.80286 7.96753 6.80286C8.45041 6.80286 8.83722 7.20354 8.83722 7.69173V14.8796C8.83722 15.3674 8.45044 15.7685 7.96753 15.7685ZM7.21734 14.8796C7.21734 15.3043 7.55344 15.649 7.96753 15.649C8.38162 15.649 8.71773 15.3043 8.71773 14.8796V7.69173C8.71773 7.26671 8.38162 6.92235 7.96753 6.92235C7.55344 6.92235 7.21734 7.26671 7.21734 7.69173V14.8796Z" fill="#62D066"/>
<path d="M11.9684 18.1085C11.5543 18.1085 11.2182 17.7638 11.2182 17.3391V9.40573C11.2182 8.98105 11.5543 8.63635 11.9684 8.63635C12.3825 8.63635 12.7186 8.98105 12.7186 9.40573V17.3391C12.7184 17.7638 12.3823 18.1085 11.9684 18.1085Z" fill="#62D066"/>
<path fill-rule="evenodd" clip-rule="evenodd" d="M12.838 17.3391C12.8378 17.8269 12.4511 18.2279 11.9683 18.2279C11.4854 18.2279 11.0986 17.8269 11.0986 17.3391V9.40572C11.0986 8.91791 11.4854 8.51685 11.9683 8.51685C12.4512 8.51685 12.838 8.91791 12.838 9.40572V17.3391ZM11.2181 17.3391C11.2181 17.7637 11.5542 18.1084 11.9683 18.1084C12.3822 18.1084 12.7184 17.7637 12.7185 17.3391V9.40572C12.7185 8.98104 12.3824 8.63634 11.9683 8.63634C11.5542 8.63634 11.2181 8.98104 11.2181 9.40572V17.3391Z" fill="#62D066"/>
<path d="M15.9689 15.7819C15.5545 15.7819 15.2187 15.4372 15.2187 15.0125V7.69101C15.2187 7.26598 15.5545 6.92163 15.9689 6.92163C16.383 6.92163 16.7191 7.26598 16.7191 7.69101V15.0125C16.7191 15.4372 16.383 15.7819 15.9689 15.7819Z" fill="#62D066"/>
<path fill-rule="evenodd" clip-rule="evenodd" d="M15.9688 15.9014C15.4855 15.9014 15.0991 15.5003 15.0991 15.0125V7.691C15.0991 7.20284 15.4856 6.80212 15.9688 6.80212C16.4517 6.80212 16.8385 7.2028 16.8385 7.691V15.0125C16.8385 15.5003 16.4517 15.9014 15.9688 15.9014ZM15.2186 15.0125C15.2186 15.4372 15.5544 15.7819 15.9688 15.7819C16.3829 15.7819 16.719 15.4372 16.719 15.0125V7.691C16.719 7.26597 16.3829 6.92162 15.9688 6.92162C15.5544 6.92162 15.2186 7.26597 15.2186 7.691V15.0125Z" fill="#62D066"/>
</g>
<defs>
<linearGradient id="paint0_linear" x1="12" y1="0" x2="12" y2="24" gradientUnits="userSpaceOnUse">
<stop stop-color="#242424"/>
<stop offset="1" stop-color="#1A1A1A"/>
</linearGradient>
<clipPath id="clip0">
<rect width="10.0378" height="11.8303" fill="white" transform="translate(6.96002 6.59998)"/>
</clipPath>
</defs>
</svg>
