<svg xmlns="http://www.w3.org/2000/svg" width="248" height="66" fill="none" viewBox="0 0 248 66">
    <g fill="#62D066" clip-path="url(#clip0)">
        <path d="M5.711 50.358c-2.348 0-4.253-1.918-4.253-4.281V6.073c0-2.366 1.905-4.282 4.253-4.282s4.253 1.916 4.253 4.282v40.004c0 2.363-1.905 4.282-4.253 4.282z"/>
        <path fill-rule="evenodd" d="M5.712 51.024c-2.738 0-4.93-2.232-4.93-4.947V6.073c0-2.717 2.192-4.947 4.93-4.947 2.737 0 4.93 2.23 4.93 4.947v40.004c0 2.715-2.193 4.947-4.93 4.947zm-4.253-4.947c0 2.363 1.905 4.282 4.253 4.282 2.347 0 4.253-1.919 4.253-4.282V6.073c0-2.365-1.906-4.282-4.253-4.282-2.348 0-4.253 1.917-4.253 4.282v40.004z" clip-rule="evenodd"/>
        <path d="M28.392 64.05c-2.347 0-4.253-1.918-4.253-4.282V15.615c0-2.363 1.906-4.281 4.253-4.281 2.348 0 4.253 1.918 4.253 4.281v44.153c0 2.364-1.906 4.282-4.253 4.282z"/>
        <path fill-rule="evenodd" d="M33.324 59.768c-.001 2.715-2.194 4.947-4.93 4.947-2.738 0-4.931-2.232-4.931-4.947V15.615c0-2.715 2.192-4.947 4.93-4.947 2.738 0 4.93 2.232 4.93 4.947v44.153zm-9.184 0c0 2.364 1.906 4.282 4.253 4.282 2.347 0 4.252-1.918 4.253-4.282V15.615c0-2.363-1.905-4.281-4.253-4.281-2.347 0-4.253 1.918-4.253 4.281v44.153z" clip-rule="evenodd"/>
        <path d="M51.072 51.102c-2.35 0-4.253-1.919-4.253-4.282V6.072c0-2.365 1.904-4.282 4.253-4.282 2.348 0 4.253 1.917 4.253 4.282V46.82c0 2.363-1.905 4.282-4.253 4.282z"/>
        <path fill-rule="evenodd" d="M51.073 51.767c-2.74 0-4.93-2.232-4.93-4.947V6.072c0-2.716 2.19-4.947 4.93-4.947 2.737 0 4.93 2.23 4.93 4.947V46.82c0 2.715-2.192 4.947-4.93 4.947zM46.82 46.82c0 2.363 1.903 4.282 4.253 4.282 2.347 0 4.253-1.919 4.253-4.282V6.072c0-2.365-1.906-4.282-4.253-4.282-2.35 0-4.253 1.917-4.253 4.282V46.82z" clip-rule="evenodd"/>
    </g>
    <path fill="#fff" d="M98.485 49.176c-2.207 0-4.216-.412-6.026-1.236-1.81-.866-3.245-2.167-4.305-3.9-1.06-1.777-1.59-4.031-1.59-6.761v-22.04h7.617v23.21c0 .867.198 1.647.596 2.34.397.65.905 1.149 1.523 1.495.662.347 1.39.52 2.185.52.75 0 1.457-.173 2.119-.52.663-.346 1.192-.845 1.59-1.495.397-.693.596-1.474.596-2.34V26.226c0-2.557.485-4.702 1.457-6.436 1.015-1.777 2.406-3.099 4.172-3.965 1.81-.91 3.863-1.366 6.159-1.366 2.34 0 4.393.455 6.159 1.366 1.766.866 3.156 2.188 4.172 3.965 1.015 1.734 1.523 3.88 1.523 6.436V38.45c0 .867.199 1.647.596 2.34.397.65.927 1.149 1.589 1.495.663.347 1.391.52 2.186.52.75 0 1.435-.173 2.053-.52.662-.346 1.192-.845 1.589-1.495.397-.693.596-1.474.596-2.34v-23.21h7.616v22.04c0 2.73-.53 4.984-1.59 6.76-1.059 1.734-2.494 3.035-4.304 3.901-1.81.824-3.797 1.236-5.96 1.236-2.164 0-4.15-.412-5.961-1.236-1.81-.866-3.267-2.167-4.37-3.9-1.104-1.777-1.656-4.031-1.656-6.761V25.186c0-.953-.199-1.733-.596-2.34-.353-.65-.861-1.149-1.523-1.495-.618-.347-1.325-.52-2.119-.52-.707 0-1.391.173-2.053.52-.662.346-1.192.845-1.59 1.495-.397.607-.596 1.387-.596 2.34V37.28c0 2.73-.552 4.984-1.655 6.76-1.06 1.734-2.495 3.035-4.305 3.901-1.766.824-3.73 1.236-5.894 1.236zM164.203 49.176c-3.223 0-6.004-.78-8.344-2.34-2.34-1.561-4.15-3.641-5.431-6.242-1.236-2.644-1.854-5.548-1.854-8.712 0-3.294.706-6.24 2.119-8.841 1.457-2.644 3.51-4.724 6.159-6.241 2.693-1.56 5.894-2.34 9.603-2.34 3.664 0 6.777.78 9.337 2.34 2.605 1.517 4.592 3.597 5.96 6.24 1.413 2.601 2.12 5.505 2.12 8.712v16.643h-7.616V42.22h-.133c-.662 1.214-1.523 2.362-2.582 3.446-1.06 1.04-2.362 1.885-3.908 2.535-1.545.65-3.355.976-5.43.976zm2.053-6.372c1.987 0 3.709-.476 5.165-1.43 1.502-.997 2.672-2.319 3.51-3.966.839-1.69 1.237-3.575 1.192-5.656 0-2.08-.397-3.922-1.192-5.526-.794-1.647-1.92-2.947-3.377-3.9-1.457-.997-3.201-1.496-5.232-1.496-2.119 0-3.929.499-5.43 1.496-1.501.953-2.649 2.253-3.444 3.9-.795 1.647-1.192 3.511-1.192 5.591 0 2.038.397 3.901 1.192 5.591.795 1.648 1.921 2.97 3.378 3.966 1.501.954 3.311 1.43 5.43 1.43zM191.395 48.395V24.666c0-2.947.839-5.244 2.516-6.891 1.722-1.69 4.084-2.536 7.086-2.536h8.146v6.372h-6.755c-1.06 0-1.898.303-2.516.91-.574.607-.861 1.43-.861 2.47v23.404h-7.616zM230.384 14.46c-3.443 0-6.49.714-9.139 2.145-2.649 1.43-4.724 3.489-6.225 6.176-1.457 2.644-2.185 5.786-2.185 9.427v30.49h7.616V43.39h.066c.706 1.17 1.633 2.188 2.781 3.055 1.148.867 2.429 1.539 3.841 2.016 1.413.476 2.914.715 4.504.715 3.223 0 6.048-.694 8.476-2.08 2.473-1.431 4.393-3.403 5.762-5.917 1.413-2.514 2.119-5.46 2.119-8.842 0-2.643-.419-5.049-1.258-7.216-.795-2.21-1.965-4.117-3.51-5.72-1.501-1.604-3.333-2.818-5.497-3.642-2.163-.866-4.613-1.3-7.351-1.3zm0 6.37c1.943 0 3.665.477 5.166 1.43 1.501.91 2.671 2.19 3.51 3.836.839 1.647 1.258 3.554 1.258 5.721 0 2.124-.419 4.01-1.258 5.657-.839 1.647-2.009 2.947-3.51 3.9-1.457.954-3.157 1.43-5.099 1.43-1.943 0-3.665-.455-5.166-1.365-1.501-.953-2.671-2.254-3.51-3.9-.839-1.648-1.258-3.555-1.258-5.722 0-2.167.419-4.074 1.258-5.72.839-1.648 2.009-2.926 3.51-3.836 1.501-.954 3.201-1.43 5.099-1.43z"/>
    <defs>
        <clipPath id="clip0">
            <path fill="#fff" d="M0 0H56.907V65.841H0z"/>
        </clipPath>
    </defs>
</svg>
